<?xml version="1.0" encoding="utf-8"?>
<!-- Generator: Adobe Illustrator 15.1.0, SVG Export Plug-In . SVG Version: 6.00 Build 0)  -->
<!DOCTYPE svg PUBLIC "-//W3C//DTD SVG 1.1//EN" "http://www.w3.org/Graphics/SVG/1.1/DTD/svg11.dtd">
<svg version="1.1" id="Layer_1" xmlns="http://www.w3.org/2000/svg" xmlns:xlink="http://www.w3.org/1999/xlink" x="0px" y="0px"
	 width="100px" height="80.736px" viewBox="0 0 100 80.736" enable-background="new 0 0 100 80.736" xml:space="preserve">
<path fill="#010101" d="M18.915,71.766h-7.2c0.971,0.911,1.599,2.226,1.599,3.599c0,2.8-2.286,5.083-5.087,5.083
	c-2.8,0-5.087-2.283-5.087-5.083c0-1.313,0.459-2.571,1.43-3.599H0v-1.83h4.571v-7.487h67.083V41.077h25.086v2.633H83.654v11.424
	h7.829v12.632H75.998c-1.141,0.17-1.029,1.656,0.058,1.77H100v2.23h-9.43c0.913,0.911,1.542,2.226,1.542,3.599
	c0,2.8-2.286,5.083-5.086,5.083s-5.084-2.283-5.084-5.083c0-1.429,0.63-2.739,1.543-3.599h-7.6c0.058,0.225,0.111,0.458,0.111,0.625
	c0,4.574-3.771,8.344-8.285,8.344c-4.513,0-8.227-3.712-8.227-8.344c0-0.168,0.057-0.456,0.057-0.684h-3.83
	c0,0.283,0.058,0.514,0.058,0.684c0,4.574-3.771,8.344-8.285,8.344c-4.513,0-8.229-3.712-8.229-8.344
	c0-0.113,0.058-0.285,0.115-0.625h-4.114c0,0.284,0.057,0.458,0.057,0.625c0,4.574-3.769,8.344-8.286,8.344
	c-4.512,0-8.228-3.712-8.228-8.344C18.799,72.224,18.857,72.048,18.915,71.766"/>
<path fill="#010101" d="M25.315,43.936c-1.372-0.167-2.4-1.143-2.171-2.283l2.055-6.172l-0.342-4.229h-3.942H16.97l-0.342,4.229
	l2.058,6.172c0.23,1.14-0.799,2.116-2.058,2.283H10.17l-5.599,8.398l5.599,8.403h59.827V43.882C66,44.053,66.285,42.395,66,41.194
	H41.084c-0.112,0.916,0,2.742-3.142,2.742L25.315,43.936L25.315,43.936z"/>
<path fill="#010101" d="M23.314,29.48h-4.629c0.629-6.4,2.458-11.028,7.599-15.542c1.318-2.115,0.287-12.172,9.142-13.716
	C44.114-1.262,44,5.139,50.742,5.822c2.916,0.288,5.601-2.341,8.57-2.282c4.056,0.112,5.772,3.826,9.201,3.998
	c3.429,0.173,4.114-2.056,7.43-2.17c3.312-0.114,7.828,3.657,7.828,7.202c0,4.056-0.344,8.341-7.085,10.055
	c-3.201,0.802-5.999-2.572-9.201-2.456c-2.856,0.056-5.715,2.687-8.515,2.687c-6.74,0-6.397-4.059-10.168-4.059
	c-3.942,0-4.8,3.943-10.8,4.286c-4.175,0.229-6.287-2.628-9.145-1.713C24.343,22.852,23.601,29.48,23.314,29.48"/>
</svg>
